<svg width="64" height="64" viewBox="0 0 64 64" fill="none" xmlns="http://www.w3.org/2000/svg">
<path fill-rule="evenodd" clip-rule="evenodd" d="M12 56C12 56 8 56 8 52C8 48 12 36 32 36C52 36 56 48 56 52C56 56 52 56 52 56H12ZM32 32C35.1826 32 38.2348 30.7357 40.4853 28.4853C42.7357 26.2348 44 23.1826 44 20C44 16.8174 42.7357 13.7652 40.4853 11.5147C38.2348 9.26428 35.1826 8 32 8C28.8174 8 25.7652 9.26428 23.5147 11.5147C21.2643 13.7652 20 16.8174 20 20C20 23.1826 21.2643 26.2348 23.5147 28.4853C25.7652 30.7357 28.8174 32 32 32V32Z" fill="white"/>
</svg>
