<svg width="0" height="0" class="hidden">
  <symbol fill="none" xmlns="http://www.w3.org/2000/svg" viewBox="0 0 50 45" id="chatting-plus">
    <path fill-rule="evenodd" clip-rule="evenodd" d="M8.36875 33.4519C8.69312 33.7449 8.94167 34.0988 9.09669 34.4882C9.25172 34.8776 9.3094 35.2929 9.26562 35.7047C9.046 37.6104 8.62961 39.4935 8.02187 41.3297C12.3812 40.4213 15.0438 39.3694 16.2531 38.8181C16.9391 38.5054 17.729 38.4313 18.4719 38.61C20.6014 39.1209 22.7961 39.3781 25 39.375C37.4875 39.375 46.875 31.4803 46.875 22.5C46.875 13.5225 37.4875 5.625 25 5.625C12.5125 5.625 3.125 13.5225 3.125 22.5C3.125 26.6288 5.05312 30.4594 8.36875 33.4519ZM6.82812 44.4347C6.08771 44.5668 5.3449 44.6877 4.6 44.7975C3.975 44.8875 3.5 44.3025 3.74688 43.7794C4.02435 43.1904 4.27867 42.5929 4.50937 41.9878L4.51875 41.9597C5.29375 39.9347 5.925 37.6059 6.15625 35.4375C2.32188 31.9781 0 27.45 0 22.5C0 11.6269 11.1937 2.8125 25 2.8125C38.8063 2.8125 50 11.6269 50 22.5C50 33.3731 38.8063 42.1875 25 42.1875C22.5239 42.1905 20.0581 41.9012 17.6656 41.3269C16.0406 42.0666 12.5437 43.4138 6.82812 44.4347V44.4347Z" fill="#343A40"></path>
    <path fill-rule="evenodd" clip-rule="evenodd" d="M24.5 14.6024C24.7569 14.6024 25.0033 14.7108 25.185 14.9037C25.3667 15.0967 25.4688 15.3584 25.4688 15.6312V21.8041H31.2812C31.5382 21.8041 31.7846 21.9125 31.9663 22.1054C32.1479 22.2984 32.25 22.5601 32.25 22.8329C32.25 23.1058 32.1479 23.3675 31.9663 23.5604C31.7846 23.7533 31.5382 23.8617 31.2812 23.8617H25.4688V30.0346C25.4688 30.3075 25.3667 30.5691 25.185 30.7621C25.0033 30.955 24.7569 31.0634 24.5 31.0634C24.2431 31.0634 23.9967 30.955 23.815 30.7621C23.6333 30.5691 23.5312 30.3075 23.5312 30.0346V23.8617H17.7188C17.4618 23.8617 17.2154 23.7533 17.0337 23.5604C16.8521 23.3675 16.75 23.1058 16.75 22.8329C16.75 22.5601 16.8521 22.2984 17.0337 22.1054C17.2154 21.9125 17.4618 21.8041 17.7188 21.8041H23.5312V15.6312C23.5312 15.3584 23.6333 15.0967 23.815 14.9037C23.9967 14.7108 24.2431 14.6024 24.5 14.6024V14.6024Z" fill="#343A40"></path>
  </symbol>
  <symbol fill="none" xmlns="http://www.w3.org/2000/svg" viewBox="0 0 24 24" id="box-arrow-left">
    <g clip-path="url(#clip0_108_1646)">
      <path fill-rule="evenodd" clip-rule="evenodd" d="M8.95524 18.75C8.95524 18.9489 9.03387 19.1397 9.17382 19.2803C9.31377 19.421 9.50359 19.5 9.70151 19.5H21.6418C21.8397 19.5 22.0296 19.421 22.1695 19.2803C22.3095 19.1397 22.3881 18.9489 22.3881 18.75V5.25C22.3881 5.05109 22.3095 4.86032 22.1695 4.71967C22.0296 4.57902 21.8397 4.5 21.6418 4.5H9.70151C9.50359 4.5 9.31377 4.57902 9.17382 4.71967C9.03387 4.86032 8.95524 5.05109 8.95524 5.25V8.25C8.95524 8.44891 8.87662 8.63968 8.73667 8.78033C8.59672 8.92098 8.4069 9 8.20898 9C8.01105 9 7.82124 8.92098 7.68128 8.78033C7.54133 8.63968 7.46271 8.44891 7.46271 8.25V5.25C7.46271 4.65326 7.69858 4.08097 8.11844 3.65901C8.5383 3.23705 9.10775 3 9.70151 3H21.6418C22.2356 3 22.805 3.23705 23.2249 3.65901C23.6447 4.08097 23.8806 4.65326 23.8806 5.25V18.75C23.8806 19.3467 23.6447 19.919 23.2249 20.341C22.805 20.7629 22.2356 21 21.6418 21H9.70151C9.10775 21 8.5383 20.7629 8.11844 20.341C7.69858 19.919 7.46271 19.3467 7.46271 18.75V15.75C7.46271 15.5511 7.54133 15.3603 7.68128 15.2197C7.82124 15.079 8.01105 15 8.20898 15C8.4069 15 8.59672 15.079 8.73667 15.2197C8.87662 15.3603 8.95524 15.5511 8.95524 15.75V18.75Z" fill="#ADB5BD"></path>
      <path fill-rule="evenodd" clip-rule="evenodd" d="M0.21778 12.5308C0.148282 12.4612 0.0931437 12.3784 0.0555221 12.2873C0.0179005 12.1962 -0.00146484 12.0985 -0.00146484 11.9998C-0.00146484 11.9012 0.0179005 11.8035 0.0555221 11.7124C0.0931437 11.6213 0.148282 11.5385 0.21778 11.4688L4.69539 6.96885C4.76478 6.89912 4.84715 6.8438 4.9378 6.80606C5.02846 6.76833 5.12562 6.7489 5.22375 6.7489C5.32187 6.7489 5.41904 6.76833 5.50969 6.80606C5.60035 6.8438 5.68272 6.89912 5.75211 6.96885C5.82149 7.03858 5.87653 7.12136 5.91408 7.21247C5.95163 7.30358 5.97096 7.40123 5.97096 7.49985C5.97096 7.59846 5.95163 7.69612 5.91408 7.78722C5.87653 7.87833 5.82149 7.96112 5.75211 8.03085L2.54763 11.2498H15.6715C15.8694 11.2498 16.0592 11.3289 16.1992 11.4695C16.3392 11.6102 16.4178 11.8009 16.4178 11.9998C16.4178 12.1988 16.3392 12.3895 16.1992 12.5302C16.0592 12.6708 15.8694 12.7498 15.6715 12.7498H2.54763L5.75211 15.9688C5.82149 16.0386 5.87653 16.1214 5.91408 16.2125C5.95163 16.3036 5.97096 16.4012 5.97096 16.4998C5.97096 16.5985 5.95163 16.6961 5.91408 16.7872C5.87653 16.8783 5.82149 16.9611 5.75211 17.0308C5.68272 17.1006 5.60035 17.1559 5.50969 17.1936C5.41904 17.2314 5.32187 17.2508 5.22375 17.2508C5.12562 17.2508 5.02846 17.2314 4.9378 17.1936C4.84715 17.1559 4.76478 17.1006 4.69539 17.0308L0.21778 12.5308V12.5308Z" fill="#ADB5BD"></path>
    </g>
    <defs>
      <clipPath id="clip0_108_1646">
        <rect width="23.8806" height="24" fill="white"></rect>
      </clipPath>
    </defs>
  </symbol>
  <symbol fill="none" xmlns="http://www.w3.org/2000/svg" viewBox="0 0 26 27" id="box-arrow-right">
    <g clip-path="url(#clip0_108_1654)">
      <path fill-rule="evenodd" clip-rule="evenodd" d="M16.25 21.0938C16.25 21.3175 16.1644 21.5321 16.012 21.6904C15.8597 21.8486 15.653 21.9375 15.4375 21.9375H2.4375C2.22201 21.9375 2.01535 21.8486 1.86298 21.6904C1.7106 21.5321 1.625 21.3175 1.625 21.0938V5.90625C1.625 5.68247 1.7106 5.46786 1.86298 5.30963C2.01535 5.15139 2.22201 5.0625 2.4375 5.0625H15.4375C15.653 5.0625 15.8597 5.15139 16.012 5.30963C16.1644 5.46786 16.25 5.68247 16.25 5.90625V9.28125C16.25 9.50503 16.3356 9.71964 16.488 9.87787C16.6403 10.0361 16.847 10.125 17.0625 10.125C17.278 10.125 17.4847 10.0361 17.637 9.87787C17.7894 9.71964 17.875 9.50503 17.875 9.28125V5.90625C17.875 5.23492 17.6182 4.59109 17.1611 4.11639C16.704 3.64168 16.084 3.375 15.4375 3.375H2.4375C1.79103 3.375 1.17105 3.64168 0.713927 4.11639C0.256807 4.59109 0 5.23492 0 5.90625L0 21.0938C0 21.7651 0.256807 22.4089 0.713927 22.8836C1.17105 23.3583 1.79103 23.625 2.4375 23.625H15.4375C16.084 23.625 16.704 23.3583 17.1611 22.8836C17.6182 22.4089 17.875 21.7651 17.875 21.0938V17.7188C17.875 17.495 17.7894 17.2804 17.637 17.1221C17.4847 16.9639 17.278 16.875 17.0625 16.875C16.847 16.875 16.6403 16.9639 16.488 17.1221C16.3356 17.2804 16.25 17.495 16.25 17.7188V21.0938Z" fill="#ADB5BD"></path>
      <path fill-rule="evenodd" clip-rule="evenodd" d="M25.7628 14.0972C25.8384 14.0188 25.8984 13.9257 25.9394 13.8232C25.9804 13.7207 26.0015 13.6108 26.0015 13.4998C26.0015 13.3889 25.9804 13.279 25.9394 13.1765C25.8984 13.074 25.8384 12.9808 25.7628 12.9025L20.8878 7.83997C20.7352 7.68154 20.5283 7.59253 20.3125 7.59253C20.0967 7.59253 19.8898 7.68154 19.7373 7.83997C19.5847 7.9984 19.499 8.21329 19.499 8.43735C19.499 8.6614 19.5847 8.87629 19.7373 9.03472L23.2261 12.6561H8.9375C8.72201 12.6561 8.51535 12.745 8.36298 12.9032C8.2106 13.0615 8.125 13.2761 8.125 13.4998C8.125 13.7236 8.2106 13.9382 8.36298 14.0965C8.51535 14.2547 8.72201 14.3436 8.9375 14.3436H23.2261L19.7373 17.965C19.5847 18.1234 19.499 18.3383 19.499 18.5623C19.499 18.7864 19.5847 19.0013 19.7373 19.1597C19.8898 19.3182 20.0967 19.4072 20.3125 19.4072C20.5283 19.4072 20.7352 19.3182 20.8878 19.1597L25.7628 14.0972V14.0972Z" fill="#ADB5BD"></path>
    </g>
    <defs>
      <clipPath id="clip0_108_1654">
        <rect width="26" height="27" fill="white"></rect>
      </clipPath>
    </defs>
  </symbol>
  <symbol fill="none" xmlns="http://www.w3.org/2000/svg" viewBox="0 0 24 24" id="calendar">
    <g clip-path="url(#clip0_108_1670)">
      <path fill-rule="evenodd" clip-rule="evenodd" d="M5.25 0C5.44891 0 5.63968 0.0790176 5.78033 0.21967C5.92098 0.360322 6 0.551088 6 0.75V1.5H18V0.75C18 0.551088 18.079 0.360322 18.2197 0.21967C18.3603 0.0790176 18.5511 0 18.75 0C18.9489 0 19.1397 0.0790176 19.2803 0.21967C19.421 0.360322 19.5 0.551088 19.5 0.75V1.5H21C21.7956 1.5 22.5587 1.81607 23.1213 2.37868C23.6839 2.94129 24 3.70435 24 4.5V21C24 21.7956 23.6839 22.5587 23.1213 23.1213C22.5587 23.6839 21.7956 24 21 24H3C2.20435 24 1.44129 23.6839 0.87868 23.1213C0.316071 22.5587 0 21.7956 0 21V4.5C0 3.70435 0.316071 2.94129 0.87868 2.37868C1.44129 1.81607 2.20435 1.5 3 1.5H4.5V0.75C4.5 0.551088 4.57902 0.360322 4.71967 0.21967C4.86032 0.0790176 5.05109 0 5.25 0V0ZM3 5.25C3 4.836 3.366 4.5 3.8175 4.5H20.1825C20.6325 4.5 21 4.836 21 5.25V6.75C21 7.164 20.634 7.5 20.181 7.5H3.8175C3.3675 7.5 3 7.164 3 6.75V5.25ZM16.281 13.281C16.4218 13.1402 16.5009 12.9492 16.5009 12.75C16.5009 12.5508 16.4218 12.3598 16.281 12.219C16.1402 12.0782 15.9492 11.9991 15.75 11.9991C15.5508 11.9991 15.3598 12.0782 15.219 12.219L11.25 16.1895L9.531 14.469C9.46127 14.3993 9.37848 14.344 9.28738 14.3062C9.19627 14.2685 9.09862 14.2491 9 14.2491C8.90138 14.2491 8.80373 14.2685 8.71262 14.3062C8.62152 14.344 8.53873 14.3993 8.469 14.469C8.39927 14.5387 8.34395 14.6215 8.30621 14.7126C8.26848 14.8037 8.24905 14.9014 8.24905 15C8.24905 15.0986 8.26848 15.1963 8.30621 15.2874C8.34395 15.3785 8.39927 15.4613 8.469 15.531L10.719 17.781C10.7887 17.8508 10.8714 17.9063 10.9625 17.9441C11.0537 17.9819 11.1513 18.0013 11.25 18.0013C11.3487 18.0013 11.4463 17.9819 11.5375 17.9441C11.6286 17.9063 11.7113 17.8508 11.781 17.781L16.281 13.281V13.281Z" fill="#0D6EFD"></path>
    </g>
    <defs>
      <clipPath id="clip0_108_1670">
        <rect width="24" height="24" fill="white"></rect>
      </clipPath>
    </defs>
  </symbol>
  <symbol fill="none" xmlns="http://www.w3.org/2000/svg" viewBox="0 0 24 24" id="camera">
    <g clip-path="url(#clip0_108_1643)">
      <path d="M15.75 12.75C15.75 13.7446 15.3549 14.6984 14.6517 15.4017C13.9484 16.1049 12.9946 16.5 12 16.5C11.0054 16.5 10.0516 16.1049 9.34835 15.4017C8.64509 14.6984 8.25 13.7446 8.25 12.75C8.25 11.7554 8.64509 10.8016 9.34835 10.0983C10.0516 9.39509 11.0054 9 12 9C12.9946 9 13.9484 9.39509 14.6517 10.0983C15.3549 10.8016 15.75 11.7554 15.75 12.75V12.75Z" fill="#6C757D"></path>
      <path fill-rule="evenodd" clip-rule="evenodd" d="M3 6C2.20435 6 1.44129 6.31607 0.87868 6.87868C0.316071 7.44129 0 8.20435 0 9L0 18C0 18.7956 0.316071 19.5587 0.87868 20.1213C1.44129 20.6839 2.20435 21 3 21H21C21.7956 21 22.5587 20.6839 23.1213 20.1213C23.6839 19.5587 24 18.7956 24 18V9C24 8.20435 23.6839 7.44129 23.1213 6.87868C22.5587 6.31607 21.7956 6 21 6H19.242C18.4464 5.99983 17.6835 5.68365 17.121 5.121L15.879 3.879C15.3165 3.31635 14.5536 3.00017 13.758 3H10.242C9.44642 3.00017 8.68348 3.31635 8.121 3.879L6.879 5.121C6.31652 5.68365 5.55358 5.99983 4.758 6H3ZM3.75 9C3.94891 9 4.13968 8.92098 4.28033 8.78033C4.42098 8.63968 4.5 8.44891 4.5 8.25C4.5 8.05109 4.42098 7.86032 4.28033 7.71967C4.13968 7.57902 3.94891 7.5 3.75 7.5C3.55109 7.5 3.36032 7.57902 3.21967 7.71967C3.07902 7.86032 3 8.05109 3 8.25C3 8.44891 3.07902 8.63968 3.21967 8.78033C3.36032 8.92098 3.55109 9 3.75 9ZM17.25 12.75C17.25 14.1424 16.6969 15.4777 15.7123 16.4623C14.7277 17.4469 13.3924 18 12 18C10.6076 18 9.27226 17.4469 8.28769 16.4623C7.30312 15.4777 6.75 14.1424 6.75 12.75C6.75 11.3576 7.30312 10.0223 8.28769 9.03769C9.27226 8.05312 10.6076 7.5 12 7.5C13.3924 7.5 14.7277 8.05312 15.7123 9.03769C16.6969 10.0223 17.25 11.3576 17.25 12.75V12.75Z" fill="#6C757D"></path>
    </g>
    <defs>
      <clipPath id="clip0_108_1643">
        <rect width="24" height="24" fill="white"></rect>
      </clipPath>
    </defs>
  </symbol>
  <symbol fill="none" xmlns="http://www.w3.org/2000/svg" viewBox="0 0 55 50" id="chatting-dots">
    <path fill-rule="evenodd" clip-rule="evenodd" d="M9.20562 37.1688C9.56243 37.4944 9.83583 37.8875 10.0064 38.3202C10.1769 38.7528 10.2403 39.2144 10.1922 39.6719C9.9506 41.7893 9.49258 43.8817 8.82406 45.9219C13.6194 44.9125 16.5481 43.7438 17.8784 43.1313C18.633 42.7838 19.5019 42.7015 20.3191 42.9C22.6615 43.4677 25.0758 43.7535 27.5 43.75C41.2363 43.75 51.5625 34.9781 51.5625 25C51.5625 15.025 41.2363 6.25 27.5 6.25C13.7637 6.25 3.4375 15.025 3.4375 25C3.4375 29.5875 5.55844 33.8438 9.20562 37.1688ZM7.51094 49.3719C6.69649 49.5187 5.87939 49.653 5.06 49.775C4.3725 49.875 3.85 49.225 4.12156 48.6437C4.42678 47.9894 4.70654 47.3254 4.96031 46.6531L4.97062 46.6219C5.82312 44.3719 6.5175 41.7844 6.77188 39.375C2.55406 35.5313 0 30.5 0 25C0 12.9188 12.3131 3.125 27.5 3.125C42.6869 3.125 55 12.9188 55 25C55 37.0812 42.6869 46.875 27.5 46.875C24.7763 46.8783 22.0639 46.5568 19.4322 45.9188C17.6447 46.7406 13.7981 48.2375 7.51094 49.3719V49.3719Z" fill="white"></path>
    <path d="M17.1875 25C17.1875 25.8288 16.8253 26.6237 16.1807 27.2097C15.536 27.7958 14.6617 28.125 13.75 28.125C12.8383 28.125 11.964 27.7958 11.3193 27.2097C10.6747 26.6237 10.3125 25.8288 10.3125 25C10.3125 24.1712 10.6747 23.3763 11.3193 22.7903C11.964 22.2042 12.8383 21.875 13.75 21.875C14.6617 21.875 15.536 22.2042 16.1807 22.7903C16.8253 23.3763 17.1875 24.1712 17.1875 25V25ZM30.9375 25C30.9375 25.8288 30.5753 26.6237 29.9307 27.2097C29.286 27.7958 28.4117 28.125 27.5 28.125C26.5883 28.125 25.714 27.7958 25.0693 27.2097C24.4247 26.6237 24.0625 25.8288 24.0625 25C24.0625 24.1712 24.4247 23.3763 25.0693 22.7903C25.714 22.2042 26.5883 21.875 27.5 21.875C28.4117 21.875 29.286 22.2042 29.9307 22.7903C30.5753 23.3763 30.9375 24.1712 30.9375 25ZM44.6875 25C44.6875 25.8288 44.3253 26.6237 43.6807 27.2097C43.036 27.7958 42.1617 28.125 41.25 28.125C40.3383 28.125 39.464 27.7958 38.8193 27.2097C38.1747 26.6237 37.8125 25.8288 37.8125 25C37.8125 24.1712 38.1747 23.3763 38.8193 22.7903C39.464 22.2042 40.3383 21.875 41.25 21.875C42.1617 21.875 43.036 22.2042 43.6807 22.7903C44.3253 23.3763 44.6875 24.1712 44.6875 25Z" fill="white"></path>
  </symbol>
  <symbol fill="none" xmlns="http://www.w3.org/2000/svg" viewBox="0 0 24 24" id="check-box">
    <g clip-path="url(#clip0_108_1674)">
      <path fill-rule="evenodd" clip-rule="evenodd" d="M3 0C2.20435 0 1.44129 0.316071 0.87868 0.87868C0.316071 1.44129 0 2.20435 0 3L0 21C0 21.7956 0.316071 22.5587 0.87868 23.1213C1.44129 23.6839 2.20435 24 3 24H21C21.7956 24 22.5587 23.6839 23.1213 23.1213C23.6839 22.5587 24 21.7956 24 21V3C24 2.20435 23.6839 1.44129 23.1213 0.87868C22.5587 0.316071 21.7956 0 21 0L3 0ZM18.045 7.455C17.9379 7.34823 17.8103 7.26416 17.6699 7.20782C17.5295 7.15149 17.3792 7.12404 17.228 7.12712C17.0768 7.1302 16.9277 7.16375 16.7897 7.22575C16.6518 7.28776 16.5277 7.37695 16.425 7.488L11.2155 14.1255L8.076 10.9845C7.86274 10.7858 7.58067 10.6776 7.28922 10.6827C6.99776 10.6879 6.71969 10.8059 6.51357 11.0121C6.30745 11.2182 6.18938 11.4963 6.18424 11.7877C6.1791 12.0792 6.28728 12.3612 6.486 12.5745L10.455 16.545C10.5619 16.6517 10.6892 16.7358 10.8294 16.7923C10.9695 16.8487 11.1196 16.8764 11.2706 16.8736C11.4217 16.8708 11.5706 16.8376 11.7085 16.776C11.8465 16.7144 11.9706 16.6256 12.0735 16.515L18.0615 9.03C18.2656 8.81775 18.3784 8.53391 18.3756 8.23944C18.3728 7.94496 18.2546 7.66333 18.0465 7.455H18.045Z" fill="#0D6EFD"></path>
    </g>
    <defs>
      <clipPath id="clip0_108_1674">
        <rect width="24" height="24" fill="white"></rect>
      </clipPath>
    </defs>
  </symbol>
  <symbol fill="none" xmlns="http://www.w3.org/2000/svg" viewBox="0 0 28 28" id="x">
    <path d="M3.75551 4.99451C3.67415 4.91315 3.60962 4.81657 3.56559 4.71028C3.52156 4.60398 3.4989 4.49006 3.4989 4.37501C3.4989 4.25995 3.52156 4.14603 3.56559 4.03974C3.60962 3.93344 3.67415 3.83686 3.75551 3.75551C3.83686 3.67415 3.93344 3.60962 4.03974 3.56559C4.14603 3.52156 4.25995 3.4989 4.37501 3.4989C4.49006 3.4989 4.60398 3.52156 4.71028 3.56559C4.81657 3.60962 4.91315 3.67415 4.99451 3.75551L14 12.7628L23.0055 3.75551C23.0869 3.67415 23.1834 3.60962 23.2897 3.56559C23.396 3.52156 23.51 3.4989 23.625 3.4989C23.7401 3.4989 23.854 3.52156 23.9603 3.56559C24.0666 3.60962 24.1632 3.67415 24.2445 3.75551C24.3259 3.83686 24.3904 3.93344 24.4344 4.03974C24.4784 4.14603 24.5011 4.25995 24.5011 4.37501C24.5011 4.49006 24.4784 4.60398 24.4344 4.71028C24.3904 4.81657 24.3259 4.91315 24.2445 4.99451L15.2373 14L24.2445 23.0055C24.3259 23.0869 24.3904 23.1834 24.4344 23.2897C24.4784 23.396 24.5011 23.51 24.5011 23.625C24.5011 23.7401 24.4784 23.854 24.4344 23.9603C24.3904 24.0666 24.3259 24.1632 24.2445 24.2445C24.1632 24.3259 24.0666 24.3904 23.9603 24.4344C23.854 24.4784 23.7401 24.5011 23.625 24.5011C23.51 24.5011 23.396 24.4784 23.2897 24.4344C23.1834 24.3904 23.0869 24.3259 23.0055 24.2445L14 15.2373L4.99451 24.2445C4.91315 24.3259 4.81657 24.3904 4.71028 24.4344C4.60398 24.4784 4.49006 24.5011 4.37501 24.5011C4.25995 24.5011 4.14603 24.4784 4.03974 24.4344C3.93344 24.3904 3.83686 24.3259 3.75551 24.2445C3.67415 24.1632 3.60962 24.0666 3.56559 23.9603C3.52156 23.854 3.4989 23.7401 3.4989 23.625C3.4989 23.51 3.52156 23.396 3.56559 23.2897C3.60962 23.1834 3.67415 23.0869 3.75551 23.0055L12.7628 14L3.75551 4.99451Z" fill="#343A40"></path>
  </symbol>
  <symbol fill="none" xmlns="http://www.w3.org/2000/svg" viewBox="0 0 24 24" id="pencil-box">
    <path d="M23.2526 2.90986C23.3927 3.05044 23.4714 3.24085 23.4714 3.43936C23.4714 3.63786 23.3927 3.82827 23.2526 3.96886L21.6881 5.53486L18.6881 2.53486L20.2526 0.968857C20.3932 0.828254 20.584 0.749268 20.7828 0.749268C20.9817 0.749268 21.1724 0.828254 21.3131 0.968857L23.2526 2.90836V2.90986ZM20.6276 6.59386L17.6276 3.59386L7.40807 13.8149C7.32552 13.8974 7.26337 13.9981 7.22657 14.1089L6.01907 17.7299C5.99717 17.7959 5.99407 17.8667 6.01009 17.9344C6.02612 18.002 6.06066 18.0639 6.10984 18.1131C6.15901 18.1623 6.2209 18.1968 6.28858 18.2128C6.35626 18.2289 6.42706 18.2258 6.49307 18.2039L10.1141 16.9964C10.2247 16.96 10.3254 16.8984 10.4081 16.8164L20.6276 6.59536V6.59386Z" fill="#0D6EFD"></path>
    <path fill-rule="evenodd" clip-rule="evenodd" d="M1.5 20.25C1.5 20.8467 1.73705 21.419 2.15901 21.841C2.58097 22.2629 3.15326 22.5 3.75 22.5H20.25C20.8467 22.5 21.419 22.2629 21.841 21.841C22.2629 21.419 22.5 20.8467 22.5 20.25V11.25C22.5 11.0511 22.421 10.8603 22.2803 10.7197C22.1397 10.579 21.9489 10.5 21.75 10.5C21.5511 10.5 21.3603 10.579 21.2197 10.7197C21.079 10.8603 21 11.0511 21 11.25V20.25C21 20.4489 20.921 20.6397 20.7803 20.7803C20.6397 20.921 20.4489 21 20.25 21H3.75C3.55109 21 3.36032 20.921 3.21967 20.7803C3.07902 20.6397 3 20.4489 3 20.25V3.75C3 3.55109 3.07902 3.36032 3.21967 3.21967C3.36032 3.07902 3.55109 3 3.75 3H13.5C13.6989 3 13.8897 2.92098 14.0303 2.78033C14.171 2.63968 14.25 2.44891 14.25 2.25C14.25 2.05109 14.171 1.86032 14.0303 1.71967C13.8897 1.57902 13.6989 1.5 13.5 1.5H3.75C3.15326 1.5 2.58097 1.73705 2.15901 2.15901C1.73705 2.58097 1.5 3.15326 1.5 3.75V20.25Z" fill="#0D6EFD"></path>
  </symbol>
  <symbol fill="none" xmlns="http://www.w3.org/2000/svg" viewBox="0 0 24 24" id="trash-bin">
    <g clip-path="url(#clip0_108_1666)">
      <path fill-rule="evenodd" clip-rule="evenodd" d="M3.75 1.5C3.35218 1.5 2.97064 1.65804 2.68934 1.93934C2.40804 2.22064 2.25 2.60218 2.25 3V4.5C2.25 4.89782 2.40804 5.27936 2.68934 5.56066C2.97064 5.84196 3.35218 6 3.75 6H4.5V19.5C4.5 20.2956 4.81607 21.0587 5.37868 21.6213C5.94129 22.1839 6.70435 22.5 7.5 22.5H16.5C17.2956 22.5 18.0587 22.1839 18.6213 21.6213C19.1839 21.0587 19.5 20.2956 19.5 19.5V6H20.25C20.6478 6 21.0294 5.84196 21.3107 5.56066C21.592 5.27936 21.75 4.89782 21.75 4.5V3C21.75 2.60218 21.592 2.22064 21.3107 1.93934C21.0294 1.65804 20.6478 1.5 20.25 1.5H15C15 1.10218 14.842 0.720644 14.5607 0.43934C14.2794 0.158035 13.8978 0 13.5 0L10.5 0C10.1022 0 9.72064 0.158035 9.43934 0.43934C9.15804 0.720644 9 1.10218 9 1.5H3.75ZM8.25 7.5C8.44891 7.5 8.63968 7.57902 8.78033 7.71967C8.92098 7.86032 9 8.05109 9 8.25V18.75C9 18.9489 8.92098 19.1397 8.78033 19.2803C8.63968 19.421 8.44891 19.5 8.25 19.5C8.05109 19.5 7.86032 19.421 7.71967 19.2803C7.57902 19.1397 7.5 18.9489 7.5 18.75V8.25C7.5 8.05109 7.57902 7.86032 7.71967 7.71967C7.86032 7.57902 8.05109 7.5 8.25 7.5V7.5ZM12 7.5C12.1989 7.5 12.3897 7.57902 12.5303 7.71967C12.671 7.86032 12.75 8.05109 12.75 8.25V18.75C12.75 18.9489 12.671 19.1397 12.5303 19.2803C12.3897 19.421 12.1989 19.5 12 19.5C11.8011 19.5 11.6103 19.421 11.4697 19.2803C11.329 19.1397 11.25 18.9489 11.25 18.75V8.25C11.25 8.05109 11.329 7.86032 11.4697 7.71967C11.6103 7.57902 11.8011 7.5 12 7.5V7.5ZM16.5 8.25C16.5 8.05109 16.421 7.86032 16.2803 7.71967C16.1397 7.57902 15.9489 7.5 15.75 7.5C15.5511 7.5 15.3603 7.57902 15.2197 7.71967C15.079 7.86032 15 8.05109 15 8.25V18.75C15 18.9489 15.079 19.1397 15.2197 19.2803C15.3603 19.421 15.5511 19.5 15.75 19.5C15.9489 19.5 16.1397 19.421 16.2803 19.2803C16.421 19.1397 16.5 18.9489 16.5 18.75V8.25Z" fill="#ADB5BD"></path>
    </g>
    <defs>
      <clipPath id="clip0_108_1666">
        <rect width="24" height="24" fill="white"></rect>
      </clipPath>
    </defs>
  </symbol>
  <symbol fill="none" xmlns="http://www.w3.org/2000/svg" viewBox="0 0 24 24" id="skyblue-x-circle">
    <g clip-path="url(#clip0_108_1661)">
      <path fill-rule="evenodd" clip-rule="evenodd" d="M24 12C24 15.1826 22.7357 18.2348 20.4853 20.4853C18.2348 22.7357 15.1826 24 12 24C8.8174 24 5.76516 22.7357 3.51472 20.4853C1.26428 18.2348 0 15.1826 0 12C0 8.8174 1.26428 5.76516 3.51472 3.51472C5.76516 1.26428 8.8174 0 12 0C15.1826 0 18.2348 1.26428 20.4853 3.51472C22.7357 5.76516 24 8.8174 24 12V12ZM8.031 6.969C7.89017 6.82817 7.69916 6.74905 7.5 6.74905C7.30084 6.74905 7.10983 6.82817 6.969 6.969C6.82817 7.10983 6.74905 7.30084 6.74905 7.5C6.74905 7.69916 6.82817 7.89017 6.969 8.031L10.9395 12L6.969 15.969C6.89927 16.0387 6.84395 16.1215 6.80621 16.2126C6.76848 16.3037 6.74905 16.4014 6.74905 16.5C6.74905 16.5986 6.76848 16.6963 6.80621 16.7874C6.84395 16.8785 6.89927 16.9613 6.969 17.031C7.10983 17.1718 7.30084 17.2509 7.5 17.2509C7.59862 17.2509 7.69627 17.2315 7.78738 17.1938C7.87848 17.156 7.96127 17.1007 8.031 17.031L12 13.0605L15.969 17.031C16.0387 17.1007 16.1215 17.156 16.2126 17.1938C16.3037 17.2315 16.4014 17.2509 16.5 17.2509C16.5986 17.2509 16.6963 17.2315 16.7874 17.1938C16.8785 17.156 16.9613 17.1007 17.031 17.031C17.1007 16.9613 17.156 16.8785 17.1938 16.7874C17.2315 16.6963 17.2509 16.5986 17.2509 16.5C17.2509 16.4014 17.2315 16.3037 17.1938 16.2126C17.156 16.1215 17.1007 16.0387 17.031 15.969L13.0605 12L17.031 8.031C17.1007 7.96127 17.156 7.87848 17.1938 7.78738C17.2315 7.69627 17.2509 7.59862 17.2509 7.5C17.2509 7.40138 17.2315 7.30373 17.1938 7.21262C17.156 7.12152 17.1007 7.03873 17.031 6.969C16.9613 6.89927 16.8785 6.84395 16.7874 6.80621C16.6963 6.76848 16.5986 6.74905 16.5 6.74905C16.4014 6.74905 16.3037 6.76848 16.2126 6.80621C16.1215 6.84395 16.0387 6.89927 15.969 6.969L12 10.9395L8.031 6.969Z" fill="#CFE2FF"></path>
    </g>
    <defs>
      <clipPath id="clip0_108_1661">
        <rect width="24" height="24" fill="white"></rect>
      </clipPath>
    </defs>
  </symbol>
  <symbol width="20" height="20" viewBox="0 0 20 20" fill="none" xmlns="http://www.w3.org/2000/svg" id="alarm-gray">
    <g clip-path="url(#clip0_177_1970)">
      <path fill-rule="evenodd" clip-rule="evenodd" d="M7.51432 0.625C7.51432 0.45924 7.58017 0.300269 7.69738 0.183058C7.81459 0.065848 7.97356 0 8.13932 0L11.8893 0C12.0551 0 12.2141 0.065848 12.3313 0.183058C12.4485 0.300269 12.5143 0.45924 12.5143 0.625C12.5143 0.79076 12.4485 0.949732 12.3313 1.06694C12.2141 1.18415 12.0551 1.25 11.8893 1.25H11.2643V2.5875C12.9666 2.83322 14.5587 3.57509 15.8418 4.72042C17.1248 5.86575 18.042 7.36377 18.4786 9.02732C18.9152 10.6909 18.852 12.4462 18.2968 14.074C17.7416 15.7018 16.719 17.13 15.3568 18.18L16.1081 18.9325C16.2254 19.0497 16.2914 19.2087 16.2915 19.3746C16.2917 19.5404 16.2259 19.6995 16.1087 19.8169C15.9915 19.9342 15.8325 20.0002 15.6666 20.0003C15.5008 20.0005 15.3417 19.9347 15.2243 19.8175L14.2918 18.885C12.9855 19.6182 11.5123 20.0022 10.0143 20C8.51634 20.0022 7.04309 19.6182 5.73682 18.885L4.80432 19.8175C4.74621 19.8755 4.67724 19.9215 4.60135 19.9529C4.52546 19.9843 4.44413 20.0004 4.36201 20.0003C4.27988 20.0003 4.19858 19.9841 4.12273 19.9526C4.04688 19.9211 3.97797 19.875 3.91995 19.8169C3.86192 19.7588 3.81591 19.6898 3.78453 19.6139C3.75316 19.538 3.73704 19.4567 3.7371 19.3746C3.73722 19.2087 3.80321 19.0497 3.92057 18.9325L4.67307 18.18C3.31093 17.1301 2.28835 15.702 1.73308 14.0743C1.17781 12.4466 1.11445 10.6913 1.55094 9.0278C1.98742 7.36428 2.90439 5.86625 4.18729 4.72084C5.4702 3.57543 7.06216 2.83342 8.76432 2.5875V1.25H8.13932C7.97356 1.25 7.81459 1.18415 7.69738 1.06694C7.58017 0.949732 7.51432 0.79076 7.51432 0.625ZM1.08932 6.73375C0.765897 6.45242 0.503809 6.10756 0.319358 5.72061C0.134907 5.33366 0.032037 4.9129 0.0171452 4.4845C0.00225346 4.0561 0.0756584 3.62921 0.232795 3.23039C0.389932 2.83157 0.627441 2.46934 0.93055 2.16623C1.23366 1.86312 1.59589 1.62561 1.99471 1.46847C2.39353 1.31134 2.82042 1.23793 3.24882 1.25282C3.67722 1.26771 4.09798 1.37058 4.48493 1.55504C4.87188 1.73949 5.21674 2.00157 5.49807 2.325C3.59801 3.28968 2.05401 4.83369 1.08932 6.73375ZM14.5306 2.325C14.8119 2.00157 15.1568 1.73949 15.5437 1.55504C15.9307 1.37058 16.3514 1.26771 16.7798 1.25282C17.2082 1.23793 17.6351 1.31134 18.0339 1.46847C18.4328 1.62561 18.795 1.86312 19.0981 2.16623C19.4012 2.46934 19.6387 2.83157 19.7958 3.23039C19.953 3.62921 20.0264 4.0561 20.0115 4.4845C19.9966 4.9129 19.8937 5.33366 19.7093 5.72061C19.5248 6.10756 19.2627 6.45242 18.9393 6.73375C17.9746 4.83369 16.4306 3.28968 14.5306 2.325ZM10.6393 6.875C10.6393 6.70924 10.5735 6.55027 10.4563 6.43306C10.3391 6.31585 10.1801 6.25 10.0143 6.25C9.84856 6.25 9.68959 6.31585 9.57238 6.43306C9.45517 6.55027 9.38932 6.70924 9.38932 6.875V11.0775L7.60307 14.0525C7.51771 14.1947 7.49233 14.365 7.53254 14.526C7.57274 14.6869 7.67522 14.8253 7.81745 14.9106C7.95967 14.996 8.12998 15.0214 8.29091 14.9812C8.45184 14.941 8.59021 14.8385 8.67557 14.6962L10.5506 11.5712C10.6087 11.4742 10.6394 11.3631 10.6393 11.25V6.875Z" fill="#6C757D"/>
    </g>
    <defs>
      <clipPath id="clip0_177_1970">
        <rect width="20" height="20" fill="white"/>
      </clipPath>
    </defs>
  </symbol>
  <symbol width="20" height="20" viewBox="0 0 20 20" fill="none" xmlns="http://www.w3.org/2000/svg" id="calculator-gray">
    <g clip-path="url(#clip0_172_1889)">
      <path fill-rule="evenodd" clip-rule="evenodd" d="M15 1.25H5C4.66848 1.25 4.35054 1.3817 4.11612 1.61612C3.8817 1.85054 3.75 2.16848 3.75 2.5V17.5C3.75 17.8315 3.8817 18.1495 4.11612 18.3839C4.35054 18.6183 4.66848 18.75 5 18.75H15C15.3315 18.75 15.6495 18.6183 15.8839 18.3839C16.1183 18.1495 16.25 17.8315 16.25 17.5V2.5C16.25 2.16848 16.1183 1.85054 15.8839 1.61612C15.6495 1.3817 15.3315 1.25 15 1.25ZM5 0C4.33696 0 3.70107 0.263392 3.23223 0.732233C2.76339 1.20107 2.5 1.83696 2.5 2.5V17.5C2.5 18.163 2.76339 18.7989 3.23223 19.2678C3.70107 19.7366 4.33696 20 5 20H15C15.663 20 16.2989 19.7366 16.7678 19.2678C17.2366 18.7989 17.5 18.163 17.5 17.5V2.5C17.5 1.83696 17.2366 1.20107 16.7678 0.732233C16.2989 0.263392 15.663 0 15 0L5 0Z" fill="#6C757D"/>
      <path d="M5 3.125C5 2.95924 5.06585 2.80027 5.18306 2.68306C5.30027 2.56585 5.45924 2.5 5.625 2.5H14.375C14.5408 2.5 14.6997 2.56585 14.8169 2.68306C14.9342 2.80027 15 2.95924 15 3.125V5.625C15 5.79076 14.9342 5.94973 14.8169 6.06694C14.6997 6.18415 14.5408 6.25 14.375 6.25H5.625C5.45924 6.25 5.30027 6.18415 5.18306 6.06694C5.06585 5.94973 5 5.79076 5 5.625V3.125ZM5 8.125C5 7.95924 5.06585 7.80027 5.18306 7.68306C5.30027 7.56585 5.45924 7.5 5.625 7.5H6.875C7.04076 7.5 7.19973 7.56585 7.31694 7.68306C7.43415 7.80027 7.5 7.95924 7.5 8.125V9.375C7.5 9.54076 7.43415 9.69973 7.31694 9.81694C7.19973 9.93415 7.04076 10 6.875 10H5.625C5.45924 10 5.30027 9.93415 5.18306 9.81694C5.06585 9.69973 5 9.54076 5 9.375V8.125ZM5 11.875C5 11.7092 5.06585 11.5503 5.18306 11.4331C5.30027 11.3158 5.45924 11.25 5.625 11.25H6.875C7.04076 11.25 7.19973 11.3158 7.31694 11.4331C7.43415 11.5503 7.5 11.7092 7.5 11.875V13.125C7.5 13.2908 7.43415 13.4497 7.31694 13.5669C7.19973 13.6842 7.04076 13.75 6.875 13.75H5.625C5.45924 13.75 5.30027 13.6842 5.18306 13.5669C5.06585 13.4497 5 13.2908 5 13.125V11.875ZM5 15.625C5 15.4592 5.06585 15.3003 5.18306 15.1831C5.30027 15.0658 5.45924 15 5.625 15H6.875C7.04076 15 7.19973 15.0658 7.31694 15.1831C7.43415 15.3003 7.5 15.4592 7.5 15.625V16.875C7.5 17.0408 7.43415 17.1997 7.31694 17.3169C7.19973 17.4342 7.04076 17.5 6.875 17.5H5.625C5.45924 17.5 5.30027 17.4342 5.18306 17.3169C5.06585 17.1997 5 17.0408 5 16.875V15.625ZM8.75 8.125C8.75 7.95924 8.81585 7.80027 8.93306 7.68306C9.05027 7.56585 9.20924 7.5 9.375 7.5H10.625C10.7908 7.5 10.9497 7.56585 11.0669 7.68306C11.1842 7.80027 11.25 7.95924 11.25 8.125V9.375C11.25 9.54076 11.1842 9.69973 11.0669 9.81694C10.9497 9.93415 10.7908 10 10.625 10H9.375C9.20924 10 9.05027 9.93415 8.93306 9.81694C8.81585 9.69973 8.75 9.54076 8.75 9.375V8.125ZM8.75 11.875C8.75 11.7092 8.81585 11.5503 8.93306 11.4331C9.05027 11.3158 9.20924 11.25 9.375 11.25H10.625C10.7908 11.25 10.9497 11.3158 11.0669 11.4331C11.1842 11.5503 11.25 11.7092 11.25 11.875V13.125C11.25 13.2908 11.1842 13.4497 11.0669 13.5669C10.9497 13.6842 10.7908 13.75 10.625 13.75H9.375C9.20924 13.75 9.05027 13.6842 8.93306 13.5669C8.81585 13.4497 8.75 13.2908 8.75 13.125V11.875ZM8.75 15.625C8.75 15.4592 8.81585 15.3003 8.93306 15.1831C9.05027 15.0658 9.20924 15 9.375 15H10.625C10.7908 15 10.9497 15.0658 11.0669 15.1831C11.1842 15.3003 11.25 15.4592 11.25 15.625V16.875C11.25 17.0408 11.1842 17.1997 11.0669 17.3169C10.9497 17.4342 10.7908 17.5 10.625 17.5H9.375C9.20924 17.5 9.05027 17.4342 8.93306 17.3169C8.81585 17.1997 8.75 17.0408 8.75 16.875V15.625ZM12.5 8.125C12.5 7.95924 12.5658 7.80027 12.6831 7.68306C12.8003 7.56585 12.9592 7.5 13.125 7.5H14.375C14.5408 7.5 14.6997 7.56585 14.8169 7.68306C14.9342 7.80027 15 7.95924 15 8.125V9.375C15 9.54076 14.9342 9.69973 14.8169 9.81694C14.6997 9.93415 14.5408 10 14.375 10H13.125C12.9592 10 12.8003 9.93415 12.6831 9.81694C12.5658 9.69973 12.5 9.54076 12.5 9.375V8.125ZM12.5 11.875C12.5 11.7092 12.5658 11.5503 12.6831 11.4331C12.8003 11.3158 12.9592 11.25 13.125 11.25H14.375C14.5408 11.25 14.6997 11.3158 14.8169 11.4331C14.9342 11.5503 15 11.7092 15 11.875V16.875C15 17.0408 14.9342 17.1997 14.8169 17.3169C14.6997 17.4342 14.5408 17.5 14.375 17.5H13.125C12.9592 17.5 12.8003 17.4342 12.6831 17.3169C12.5658 17.1997 12.5 17.0408 12.5 16.875V11.875Z" fill="#6C757D"/>
    </g>
    <defs>
      <clipPath id="clip0_172_1889">
        <rect width="20" height="20" fill="white"/>
      </clipPath>
    </defs>
  </symbol>
  <symbol width="20" height="20" viewBox="0 0 20 20" fill="none" xmlns="http://www.w3.org/2000/svg" id="check-square-gray">
    <g clip-path="url(#clip0_177_1971)">
      <path fill-rule="evenodd" clip-rule="evenodd" d="M2.83331 0C2.17027 0 1.53439 0.263392 1.06555 0.732233C0.596705 1.20107 0.333313 1.83696 0.333313 2.5L0.333313 17.5C0.333313 18.163 0.596705 18.7989 1.06555 19.2678C1.53439 19.7366 2.17027 20 2.83331 20H17.8333C18.4964 20 19.1322 19.7366 19.6011 19.2678C20.0699 18.7989 20.3333 18.163 20.3333 17.5V2.5C20.3333 1.83696 20.0699 1.20107 19.6011 0.732233C19.1322 0.263392 18.4964 0 17.8333 0L2.83331 0ZM15.3708 6.2125C15.2815 6.12352 15.1752 6.05347 15.0582 6.00652C14.9412 5.95957 14.816 5.9367 14.69 5.93926C14.5639 5.94183 14.4397 5.96979 14.3248 6.02146C14.2098 6.07313 14.1064 6.14746 14.0208 6.24L9.67956 11.7712L7.06331 9.15375C6.88559 8.98815 6.65054 8.898 6.40766 8.90228C6.16478 8.90657 5.93305 9.00496 5.76129 9.17672C5.58952 9.34849 5.49113 9.58022 5.48684 9.8231C5.48256 10.066 5.57271 10.301 5.73831 10.4788L9.04581 13.7875C9.13492 13.8764 9.24102 13.9465 9.35779 13.9936C9.47457 14.0406 9.59962 14.0637 9.7255 14.0613C9.85137 14.059 9.97548 14.0313 10.0904 13.98C10.2054 13.9286 10.3088 13.8547 10.3946 13.7625L15.3846 7.525C15.5547 7.34812 15.6487 7.11159 15.6463 6.8662C15.644 6.6208 15.5455 6.3861 15.3721 6.2125H15.3708Z" fill="#6C757D"/>
    </g>
    <defs>
      <clipPath id="clip0_177_1971">
        <rect width="20" height="20" fill="white" transform="translate(0.333313)"/>
      </clipPath>
    </defs>
  </symbol>
  <symbol width="20" height="20" viewBox="0 0 20 20" fill="none" xmlns="http://www.w3.org/2000/svg" id="file-text-fill-gray">
    <g clip-path="url(#clip0_177_1975)">
      <path fill-rule="evenodd" clip-rule="evenodd" d="M15.6666 0H5.66663C5.00358 0 4.3677 0.263392 3.89886 0.732233C3.43002 1.20107 3.16663 1.83696 3.16663 2.5V17.5C3.16663 18.163 3.43002 18.7989 3.89886 19.2678C4.3677 19.7366 5.00358 20 5.66663 20H15.6666C16.3297 20 16.9656 19.7366 17.4344 19.2678C17.9032 18.7989 18.1666 18.163 18.1666 17.5V2.5C18.1666 1.83696 17.9032 1.20107 17.4344 0.732233C16.9656 0.263392 16.3297 0 15.6666 0V0ZM6.91663 5C6.75087 5 6.59189 5.06585 6.47468 5.18306C6.35747 5.30027 6.29163 5.45924 6.29163 5.625C6.29163 5.79076 6.35747 5.94973 6.47468 6.06694C6.59189 6.18415 6.75087 6.25 6.91663 6.25H14.4166C14.5824 6.25 14.7414 6.18415 14.8586 6.06694C14.9758 5.94973 15.0416 5.79076 15.0416 5.625C15.0416 5.45924 14.9758 5.30027 14.8586 5.18306C14.7414 5.06585 14.5824 5 14.4166 5H6.91663ZM6.29163 8.125C6.29163 7.95924 6.35747 7.80027 6.47468 7.68306C6.59189 7.56585 6.75087 7.5 6.91663 7.5H14.4166C14.5824 7.5 14.7414 7.56585 14.8586 7.68306C14.9758 7.80027 15.0416 7.95924 15.0416 8.125C15.0416 8.29076 14.9758 8.44973 14.8586 8.56694C14.7414 8.68415 14.5824 8.75 14.4166 8.75H6.91663C6.75087 8.75 6.59189 8.68415 6.47468 8.56694C6.35747 8.44973 6.29163 8.29076 6.29163 8.125ZM6.91663 10C6.75087 10 6.59189 10.0658 6.47468 10.1831C6.35747 10.3003 6.29163 10.4592 6.29163 10.625C6.29163 10.7908 6.35747 10.9497 6.47468 11.0669C6.59189 11.1842 6.75087 11.25 6.91663 11.25H14.4166C14.5824 11.25 14.7414 11.1842 14.8586 11.0669C14.9758 10.9497 15.0416 10.7908 15.0416 10.625C15.0416 10.4592 14.9758 10.3003 14.8586 10.1831C14.7414 10.0658 14.5824 10 14.4166 10H6.91663ZM6.91663 12.5C6.75087 12.5 6.59189 12.5658 6.47468 12.6831C6.35747 12.8003 6.29163 12.9592 6.29163 13.125C6.29163 13.2908 6.35747 13.4497 6.47468 13.5669C6.59189 13.6842 6.75087 13.75 6.91663 13.75H10.6666C10.8324 13.75 10.9914 13.6842 11.1086 13.5669C11.2258 13.4497 11.2916 13.2908 11.2916 13.125C11.2916 12.9592 11.2258 12.8003 11.1086 12.6831C10.9914 12.5658 10.8324 12.5 10.6666 12.5H6.91663Z" fill="#6C757D"/>
    </g>
    <defs>
      <clipPath id="clip0_177_1975">
        <rect width="20" height="20" fill="white" transform="translate(0.666626)"/>
      </clipPath>
    </defs>
  </symbol>
  <symbol width="20" height="20" viewBox="0 0 20 20" fill="none" xmlns="http://www.w3.org/2000/svg" id="alarm-blue">
    <g clip-path="url(#clip0_172_1883)">
      <path fill-rule="evenodd" clip-rule="evenodd" d="M7.51432 0.625C7.51432 0.45924 7.58017 0.300269 7.69738 0.183058C7.81459 0.065848 7.97356 0 8.13932 0L11.8893 0C12.0551 0 12.2141 0.065848 12.3313 0.183058C12.4485 0.300269 12.5143 0.45924 12.5143 0.625C12.5143 0.79076 12.4485 0.949732 12.3313 1.06694C12.2141 1.18415 12.0551 1.25 11.8893 1.25H11.2643V2.5875C12.9666 2.83322 14.5587 3.57509 15.8418 4.72042C17.1248 5.86575 18.042 7.36377 18.4786 9.02732C18.9152 10.6909 18.852 12.4462 18.2968 14.074C17.7416 15.7018 16.719 17.13 15.3568 18.18L16.1081 18.9325C16.2254 19.0497 16.2914 19.2087 16.2915 19.3746C16.2917 19.5404 16.2259 19.6995 16.1087 19.8169C15.9915 19.9342 15.8325 20.0002 15.6666 20.0003C15.5008 20.0005 15.3417 19.9347 15.2243 19.8175L14.2918 18.885C12.9855 19.6182 11.5123 20.0022 10.0143 20C8.51634 20.0022 7.04309 19.6182 5.73682 18.885L4.80432 19.8175C4.74621 19.8755 4.67724 19.9215 4.60135 19.9529C4.52546 19.9843 4.44413 20.0004 4.36201 20.0003C4.27988 20.0003 4.19858 19.9841 4.12273 19.9526C4.04688 19.9211 3.97797 19.875 3.91995 19.8169C3.86192 19.7588 3.81591 19.6898 3.78453 19.6139C3.75316 19.538 3.73704 19.4567 3.7371 19.3746C3.73722 19.2087 3.80321 19.0497 3.92057 18.9325L4.67307 18.18C3.31093 17.1301 2.28835 15.702 1.73308 14.0743C1.17781 12.4466 1.11445 10.6913 1.55094 9.0278C1.98742 7.36428 2.90439 5.86625 4.18729 4.72084C5.4702 3.57543 7.06216 2.83342 8.76432 2.5875V1.25H8.13932C7.97356 1.25 7.81459 1.18415 7.69738 1.06694C7.58017 0.949732 7.51432 0.79076 7.51432 0.625V0.625ZM1.08932 6.73375C0.765897 6.45242 0.503809 6.10756 0.319358 5.72061C0.134907 5.33366 0.032037 4.9129 0.0171452 4.4845C0.00225346 4.0561 0.0756584 3.62921 0.232795 3.23039C0.389932 2.83157 0.627441 2.46934 0.93055 2.16623C1.23366 1.86312 1.59589 1.62561 1.99471 1.46847C2.39353 1.31134 2.82042 1.23793 3.24882 1.25282C3.67722 1.26771 4.09798 1.37058 4.48493 1.55504C4.87188 1.73949 5.21674 2.00157 5.49807 2.325C3.59801 3.28968 2.05401 4.83369 1.08932 6.73375V6.73375ZM14.5306 2.325C14.8119 2.00157 15.1568 1.73949 15.5437 1.55504C15.9307 1.37058 16.3514 1.26771 16.7798 1.25282C17.2082 1.23793 17.6351 1.31134 18.0339 1.46847C18.4328 1.62561 18.795 1.86312 19.0981 2.16623C19.4012 2.46934 19.6387 2.83157 19.7958 3.23039C19.953 3.62921 20.0264 4.0561 20.0115 4.4845C19.9966 4.9129 19.8937 5.33366 19.7093 5.72061C19.5248 6.10756 19.2627 6.45242 18.9393 6.73375C17.9746 4.83369 16.4306 3.28968 14.5306 2.325V2.325ZM10.6393 6.875C10.6393 6.70924 10.5735 6.55027 10.4563 6.43306C10.3391 6.31585 10.1801 6.25 10.0143 6.25C9.84856 6.25 9.68959 6.31585 9.57238 6.43306C9.45517 6.55027 9.38932 6.70924 9.38932 6.875V11.0775L7.60307 14.0525C7.51771 14.1947 7.49233 14.365 7.53254 14.526C7.57274 14.6869 7.67522 14.8253 7.81745 14.9106C7.95967 14.996 8.12998 15.0214 8.29091 14.9812C8.45184 14.941 8.5902 14.8385 8.67557 14.6962L10.5506 11.5712C10.6087 11.4742 10.6394 11.3631 10.6393 11.25V6.875Z" fill="#0D6EFD"/>
    </g>
    <defs>
      <clipPath id="clip0_172_1883">
        <rect width="20" height="20" fill="white"/>
      </clipPath>
    </defs>
  </symbol>
  <symbol width="20" height="20" viewBox="0 0 20 20" fill="none" xmlns="http://www.w3.org/2000/svg" id="check-square-blue">
    <g clip-path="url(#clip0_172_2142)">
      <path fill-rule="evenodd" clip-rule="evenodd" d="M2.83331 0C2.17027 0 1.53439 0.263392 1.06555 0.732233C0.596705 1.20107 0.333313 1.83696 0.333313 2.5L0.333313 17.5C0.333313 18.163 0.596705 18.7989 1.06555 19.2678C1.53439 19.7366 2.17027 20 2.83331 20H17.8333C18.4964 20 19.1322 19.7366 19.6011 19.2678C20.0699 18.7989 20.3333 18.163 20.3333 17.5V2.5C20.3333 1.83696 20.0699 1.20107 19.6011 0.732233C19.1322 0.263392 18.4964 0 17.8333 0L2.83331 0ZM15.3708 6.2125C15.2815 6.12352 15.1752 6.05347 15.0582 6.00652C14.9412 5.95957 14.816 5.9367 14.69 5.93926C14.5639 5.94183 14.4397 5.96979 14.3248 6.02146C14.2098 6.07313 14.1064 6.14746 14.0208 6.24L9.67956 11.7712L7.06331 9.15375C6.88559 8.98815 6.65054 8.898 6.40766 8.90228C6.16478 8.90657 5.93305 9.00496 5.76129 9.17672C5.58952 9.34849 5.49113 9.58022 5.48684 9.8231C5.48256 10.066 5.57271 10.301 5.73831 10.4788L9.04581 13.7875C9.13492 13.8764 9.24102 13.9465 9.35779 13.9936C9.47457 14.0406 9.59962 14.0637 9.7255 14.0613C9.85137 14.059 9.97548 14.0313 10.0904 13.98C10.2054 13.9286 10.3088 13.8547 10.3946 13.7625L15.3846 7.525C15.5547 7.34812 15.6487 7.11159 15.6463 6.8662C15.644 6.6208 15.5455 6.3861 15.3721 6.2125H15.3708Z" fill="#0D6EFD"/>
    </g>
    <defs>
      <clipPath id="clip0_172_2142">
        <rect width="20" height="20" fill="white" transform="translate(0.333313)"/>
      </clipPath>
    </defs>
  </symbol>
  <symbol width="20" height="20" viewBox="0 0 20 20" fill="none" xmlns="http://www.w3.org/2000/svg" id="file-text-fill-blue">
    <g clip-path="url(#clip0_177_1857)">
      <path fill-rule="evenodd" clip-rule="evenodd" d="M15.6667 0H5.66666C5.00362 0 4.36773 0.263392 3.89889 0.732233C3.43005 1.20107 3.16666 1.83696 3.16666 2.5V17.5C3.16666 18.163 3.43005 18.7989 3.89889 19.2678C4.36773 19.7366 5.00362 20 5.66666 20H15.6667C16.3297 20 16.9656 19.7366 17.4344 19.2678C17.9033 18.7989 18.1667 18.163 18.1667 17.5V2.5C18.1667 1.83696 17.9033 1.20107 17.4344 0.732233C16.9656 0.263392 16.3297 0 15.6667 0V0ZM6.91666 5C6.7509 5 6.59193 5.06585 6.47471 5.18306C6.3575 5.30027 6.29166 5.45924 6.29166 5.625C6.29166 5.79076 6.3575 5.94973 6.47471 6.06694C6.59193 6.18415 6.7509 6.25 6.91666 6.25H14.4167C14.5824 6.25 14.7414 6.18415 14.8586 6.06694C14.9758 5.94973 15.0417 5.79076 15.0417 5.625C15.0417 5.45924 14.9758 5.30027 14.8586 5.18306C14.7414 5.06585 14.5824 5 14.4167 5H6.91666ZM6.29166 8.125C6.29166 7.95924 6.3575 7.80027 6.47471 7.68306C6.59193 7.56585 6.7509 7.5 6.91666 7.5H14.4167C14.5824 7.5 14.7414 7.56585 14.8586 7.68306C14.9758 7.80027 15.0417 7.95924 15.0417 8.125C15.0417 8.29076 14.9758 8.44973 14.8586 8.56694C14.7414 8.68415 14.5824 8.75 14.4167 8.75H6.91666C6.7509 8.75 6.59193 8.68415 6.47471 8.56694C6.3575 8.44973 6.29166 8.29076 6.29166 8.125ZM6.91666 10C6.7509 10 6.59193 10.0658 6.47471 10.1831C6.3575 10.3003 6.29166 10.4592 6.29166 10.625C6.29166 10.7908 6.3575 10.9497 6.47471 11.0669C6.59193 11.1842 6.7509 11.25 6.91666 11.25H14.4167C14.5824 11.25 14.7414 11.1842 14.8586 11.0669C14.9758 10.9497 15.0417 10.7908 15.0417 10.625C15.0417 10.4592 14.9758 10.3003 14.8586 10.1831C14.7414 10.0658 14.5824 10 14.4167 10H6.91666ZM6.91666 12.5C6.7509 12.5 6.59193 12.5658 6.47471 12.6831C6.3575 12.8003 6.29166 12.9592 6.29166 13.125C6.29166 13.2908 6.3575 13.4497 6.47471 13.5669C6.59193 13.6842 6.7509 13.75 6.91666 13.75H10.6667C10.8324 13.75 10.9914 13.6842 11.1086 13.5669C11.2258 13.4497 11.2917 13.2908 11.2917 13.125C11.2917 12.9592 11.2258 12.8003 11.1086 12.6831C10.9914 12.5658 10.8324 12.5 10.6667 12.5H6.91666Z" fill="#0D6EFD"/>
    </g>
    <defs>
      <clipPath id="clip0_177_1857">
        <rect width="20" height="20" fill="white" transform="translate(0.666656)"/>
      </clipPath>
    </defs>
  </symbol>
  <symbol width="20" height="20" viewBox="0 0 20 20" fill="none" xmlns="http://www.w3.org/2000/svg" id="calculator-blue">
    <g clip-path="url(#clip0_177_1976)">
      <path fill-rule="evenodd" clip-rule="evenodd" d="M15 1.25H5C4.66848 1.25 4.35054 1.3817 4.11612 1.61612C3.8817 1.85054 3.75 2.16848 3.75 2.5V17.5C3.75 17.8315 3.8817 18.1495 4.11612 18.3839C4.35054 18.6183 4.66848 18.75 5 18.75H15C15.3315 18.75 15.6495 18.6183 15.8839 18.3839C16.1183 18.1495 16.25 17.8315 16.25 17.5V2.5C16.25 2.16848 16.1183 1.85054 15.8839 1.61612C15.6495 1.3817 15.3315 1.25 15 1.25ZM5 0C4.33696 0 3.70107 0.263392 3.23223 0.732233C2.76339 1.20107 2.5 1.83696 2.5 2.5V17.5C2.5 18.163 2.76339 18.7989 3.23223 19.2678C3.70107 19.7366 4.33696 20 5 20H15C15.663 20 16.2989 19.7366 16.7678 19.2678C17.2366 18.7989 17.5 18.163 17.5 17.5V2.5C17.5 1.83696 17.2366 1.20107 16.7678 0.732233C16.2989 0.263392 15.663 0 15 0L5 0Z" fill="#0D6EFD"/>
      <path d="M5 3.125C5 2.95924 5.06585 2.80027 5.18306 2.68306C5.30027 2.56585 5.45924 2.5 5.625 2.5H14.375C14.5408 2.5 14.6997 2.56585 14.8169 2.68306C14.9342 2.80027 15 2.95924 15 3.125V5.625C15 5.79076 14.9342 5.94973 14.8169 6.06694C14.6997 6.18415 14.5408 6.25 14.375 6.25H5.625C5.45924 6.25 5.30027 6.18415 5.18306 6.06694C5.06585 5.94973 5 5.79076 5 5.625V3.125ZM5 8.125C5 7.95924 5.06585 7.80027 5.18306 7.68306C5.30027 7.56585 5.45924 7.5 5.625 7.5H6.875C7.04076 7.5 7.19973 7.56585 7.31694 7.68306C7.43415 7.80027 7.5 7.95924 7.5 8.125V9.375C7.5 9.54076 7.43415 9.69973 7.31694 9.81694C7.19973 9.93415 7.04076 10 6.875 10H5.625C5.45924 10 5.30027 9.93415 5.18306 9.81694C5.06585 9.69973 5 9.54076 5 9.375V8.125ZM5 11.875C5 11.7092 5.06585 11.5503 5.18306 11.4331C5.30027 11.3158 5.45924 11.25 5.625 11.25H6.875C7.04076 11.25 7.19973 11.3158 7.31694 11.4331C7.43415 11.5503 7.5 11.7092 7.5 11.875V13.125C7.5 13.2908 7.43415 13.4497 7.31694 13.5669C7.19973 13.6842 7.04076 13.75 6.875 13.75H5.625C5.45924 13.75 5.30027 13.6842 5.18306 13.5669C5.06585 13.4497 5 13.2908 5 13.125V11.875ZM5 15.625C5 15.4592 5.06585 15.3003 5.18306 15.1831C5.30027 15.0658 5.45924 15 5.625 15H6.875C7.04076 15 7.19973 15.0658 7.31694 15.1831C7.43415 15.3003 7.5 15.4592 7.5 15.625V16.875C7.5 17.0408 7.43415 17.1997 7.31694 17.3169C7.19973 17.4342 7.04076 17.5 6.875 17.5H5.625C5.45924 17.5 5.30027 17.4342 5.18306 17.3169C5.06585 17.1997 5 17.0408 5 16.875V15.625ZM8.75 8.125C8.75 7.95924 8.81585 7.80027 8.93306 7.68306C9.05027 7.56585 9.20924 7.5 9.375 7.5H10.625C10.7908 7.5 10.9497 7.56585 11.0669 7.68306C11.1842 7.80027 11.25 7.95924 11.25 8.125V9.375C11.25 9.54076 11.1842 9.69973 11.0669 9.81694C10.9497 9.93415 10.7908 10 10.625 10H9.375C9.20924 10 9.05027 9.93415 8.93306 9.81694C8.81585 9.69973 8.75 9.54076 8.75 9.375V8.125ZM8.75 11.875C8.75 11.7092 8.81585 11.5503 8.93306 11.4331C9.05027 11.3158 9.20924 11.25 9.375 11.25H10.625C10.7908 11.25 10.9497 11.3158 11.0669 11.4331C11.1842 11.5503 11.25 11.7092 11.25 11.875V13.125C11.25 13.2908 11.1842 13.4497 11.0669 13.5669C10.9497 13.6842 10.7908 13.75 10.625 13.75H9.375C9.20924 13.75 9.05027 13.6842 8.93306 13.5669C8.81585 13.4497 8.75 13.2908 8.75 13.125V11.875ZM8.75 15.625C8.75 15.4592 8.81585 15.3003 8.93306 15.1831C9.05027 15.0658 9.20924 15 9.375 15H10.625C10.7908 15 10.9497 15.0658 11.0669 15.1831C11.1842 15.3003 11.25 15.4592 11.25 15.625V16.875C11.25 17.0408 11.1842 17.1997 11.0669 17.3169C10.9497 17.4342 10.7908 17.5 10.625 17.5H9.375C9.20924 17.5 9.05027 17.4342 8.93306 17.3169C8.81585 17.1997 8.75 17.0408 8.75 16.875V15.625ZM12.5 8.125C12.5 7.95924 12.5658 7.80027 12.6831 7.68306C12.8003 7.56585 12.9592 7.5 13.125 7.5H14.375C14.5408 7.5 14.6997 7.56585 14.8169 7.68306C14.9342 7.80027 15 7.95924 15 8.125V9.375C15 9.54076 14.9342 9.69973 14.8169 9.81694C14.6997 9.93415 14.5408 10 14.375 10H13.125C12.9592 10 12.8003 9.93415 12.6831 9.81694C12.5658 9.69973 12.5 9.54076 12.5 9.375V8.125ZM12.5 11.875C12.5 11.7092 12.5658 11.5503 12.6831 11.4331C12.8003 11.3158 12.9592 11.25 13.125 11.25H14.375C14.5408 11.25 14.6997 11.3158 14.8169 11.4331C14.9342 11.5503 15 11.7092 15 11.875V16.875C15 17.0408 14.9342 17.1997 14.8169 17.3169C14.6997 17.4342 14.5408 17.5 14.375 17.5H13.125C12.9592 17.5 12.8003 17.4342 12.6831 17.3169C12.5658 17.1997 12.5 17.0408 12.5 16.875V11.875Z" fill="#0D6EFD"/>
    </g>
    <defs>
      <clipPath id="clip0_177_1976">
        <rect width="20" height="20" fill="white"/>
      </clipPath>
    </defs>
  </symbol>
  <symbol viewBox="0 0 42 42" fill="none" xmlns="http://www.w3.org/2000/svg" id="add-person">
    <path fill-rule="evenodd" clip-rule="evenodd" d="M2.625 36.75C2.625 36.75 0 36.75 0 34.125C0 31.5 2.625 23.625 15.75 23.625C28.875 23.625 31.5 31.5 31.5 34.125C31.5 36.75 28.875 36.75 28.875 36.75H2.625ZM15.75 21C17.8386 21 19.8416 20.1703 21.3185 18.6935C22.7953 17.2166 23.625 15.2136 23.625 13.125C23.625 11.0364 22.7953 9.03338 21.3185 7.55653C19.8416 6.07969 17.8386 5.25 15.75 5.25C13.6614 5.25 11.6584 6.07969 10.1815 7.55653C8.70469 9.03338 7.875 11.0364 7.875 13.125C7.875 15.2136 8.70469 17.2166 10.1815 18.6935C11.6584 20.1703 13.6614 21 15.75 21ZM35.4375 13.125C35.7856 13.125 36.1194 13.2633 36.3656 13.5094C36.6117 13.7556 36.75 14.0894 36.75 14.4375V18.375H40.6875C41.0356 18.375 41.3694 18.5133 41.6156 18.7594C41.8617 19.0056 42 19.3394 42 19.6875C42 20.0356 41.8617 20.3694 41.6156 20.6156C41.3694 20.8617 41.0356 21 40.6875 21H36.75V24.9375C36.75 25.2856 36.6117 25.6194 36.3656 25.8656C36.1194 26.1117 35.7856 26.25 35.4375 26.25C35.0894 26.25 34.7556 26.1117 34.5094 25.8656C34.2633 25.6194 34.125 25.2856 34.125 24.9375V21H30.1875C29.8394 21 29.5056 20.8617 29.2594 20.6156C29.0133 20.3694 28.875 20.0356 28.875 19.6875C28.875 19.3394 29.0133 19.0056 29.2594 18.7594C29.5056 18.5133 29.8394 18.375 30.1875 18.375H34.125V14.4375C34.125 14.0894 34.2633 13.7556 34.5094 13.5094C34.7556 13.2633 35.0894 13.125 35.4375 13.125Z" fill="#0D6EFD"/>
  </symbol>
  <symbol viewBox="0 0 64 64" fill="none" xmlns="http://www.w3.org/2000/svg" id="profile">
    <path fill-rule="evenodd" clip-rule="evenodd" d="M12 56C12 56 8 56 8 52C8 48 12 36 32 36C52 36 56 48 56 52C56 56 52 56 52 56H12ZM32 32C35.1826 32 38.2348 30.7357 40.4853 28.4853C42.7357 26.2348 44 23.1826 44 20C44 16.8174 42.7357 13.7652 40.4853 11.5147C38.2348 9.26428 35.1826 8 32 8C28.8174 8 25.7652 9.26428 23.5147 11.5147C21.2643 13.7652 20 16.8174 20 20C20 23.1826 21.2643 26.2348 23.5147 28.4853C25.7652 30.7357 28.8174 32 32 32V32Z" fill="white"/>
  </symbol>
  <symbol fill="none" xmlns="http://www.w3.org/2000/svg" viewBox="0 0 24 24" id="eye">
    <path d="M15.75 12C15.75 12.9946 15.3549 13.9484 14.6517 14.6517C13.9484 15.3549 12.9946 15.75 12 15.75C11.0054 15.75 10.0516 15.3549 9.34835 14.6517C8.64509 13.9484 8.25 12.9946 8.25 12C8.25 11.0054 8.64509 10.0516 9.34835 9.34835C10.0516 8.64509 11.0054 8.25 12 8.25C12.9946 8.25 13.9484 8.64509 14.6517 9.34835C15.3549 10.0516 15.75 11.0054 15.75 12V12Z" fill="black"></path>
    <path fill-rule="evenodd" clip-rule="evenodd" d="M0 12C0 12 4.5 3.75 12 3.75C19.5 3.75 24 12 24 12C24 12 19.5 20.25 12 20.25C4.5 20.25 0 12 0 12ZM12 17.25C13.3924 17.25 14.7277 16.6969 15.7123 15.7123C16.6969 14.7277 17.25 13.3924 17.25 12C17.25 10.6076 16.6969 9.27226 15.7123 8.28769C14.7277 7.30312 13.3924 6.75 12 6.75C10.6076 6.75 9.27226 7.30312 8.28769 8.28769C7.30312 9.27226 6.75 10.6076 6.75 12C6.75 13.3924 7.30312 14.7277 8.28769 15.7123C9.27226 16.6969 10.6076 17.25 12 17.25V17.25Z" fill="black"></path>
  </symbol>
  <symbol fill="none" xmlns="http://www.w3.org/2000/svg" viewBox="0 0 24 24" id="eye-close">
    <path d="M16.185 19.368L13.764 16.9455C12.8278 17.2802 11.8157 17.3422 10.8456 17.1243C9.87554 16.9063 8.98729 16.4173 8.28423 15.7143C7.58117 15.0112 7.09221 14.123 6.87424 13.1529C6.65628 12.1828 6.71827 11.1707 7.053 10.2345L3.963 7.1445C1.407 9.417 0 12 0 12C0 12 4.5 20.25 12 20.25C13.4406 20.245 14.8649 19.9448 16.185 19.368V19.368ZM7.815 4.632C9.13508 4.05514 10.5594 3.75496 12 3.75C19.5 3.75 24 12 24 12C24 12 22.5915 14.5815 20.0385 16.857L16.9455 13.764C17.2802 12.8278 17.3422 11.8157 17.1243 10.8456C16.9063 9.87554 16.4173 8.98729 15.7143 8.28423C15.0112 7.58117 14.123 7.09221 13.1529 6.87424C12.1828 6.65628 11.1707 6.71827 10.2345 7.053L7.815 4.6335V4.632Z" fill="black"></path>
    <path d="M8.28783 11.469C8.20532 12.0455 8.2582 12.6332 8.44228 13.1857C8.62636 13.7382 8.93657 14.2402 9.34835 14.652C9.76013 15.0638 10.2621 15.374 10.8146 15.5581C11.3671 15.7421 11.9549 15.795 12.5313 15.7125L8.28633 11.469H8.28783ZM15.7128 12.531L11.4693 8.286C12.0458 8.20349 12.6336 8.25637 13.186 8.44045C13.7385 8.62452 14.2405 8.93474 14.6523 9.34652C15.0641 9.7583 15.3743 10.2603 15.5584 10.8128C15.7425 11.3653 15.7953 11.953 15.7128 12.5295V12.531Z" fill="black"></path>
    <path fill-rule="evenodd" clip-rule="evenodd" d="M20.4697 21.531L2.46973 3.53099L3.53173 2.46899L21.5317 20.469L20.4697 21.531Z" fill="black"></path>
  </symbol>
  <symbol fill="none" xmlns="http://www.w3.org/2000/svg" viewBox="0 0 24 24" id="minus-square">
    <g clip-path="url(#clip0_198_1961)">
      <path fill-rule="evenodd" clip-rule="evenodd" d="M21 1.5H3C2.60218 1.5 2.22064 1.65804 1.93934 1.93934C1.65804 2.22064 1.5 2.60218 1.5 3V21C1.5 21.3978 1.65804 21.7794 1.93934 22.0607C2.22064 22.342 2.60218 22.5 3 22.5H21C21.3978 22.5 21.7794 22.342 22.0607 22.0607C22.342 21.7794 22.5 21.3978 22.5 21V3C22.5 2.60218 22.342 2.22064 22.0607 1.93934C21.7794 1.65804 21.3978 1.5 21 1.5ZM3 0C2.20435 0 1.44129 0.316071 0.87868 0.87868C0.316071 1.44129 0 2.20435 0 3L0 21C0 21.7956 0.316071 22.5587 0.87868 23.1213C1.44129 23.6839 2.20435 24 3 24H21C21.7956 24 22.5587 23.6839 23.1213 23.1213C23.6839 22.5587 24 21.7956 24 21V3C24 2.20435 23.6839 1.44129 23.1213 0.87868C22.5587 0.316071 21.7956 0 21 0L3 0Z" fill="#6C757D"></path>
      <path fill-rule="evenodd" clip-rule="evenodd" d="M6 12C6 11.8011 6.07902 11.6103 6.21967 11.4697C6.36032 11.329 6.55109 11.25 6.75 11.25H17.25C17.4489 11.25 17.6397 11.329 17.7803 11.4697C17.921 11.6103 18 11.8011 18 12C18 12.1989 17.921 12.3897 17.7803 12.5303C17.6397 12.671 17.4489 12.75 17.25 12.75H6.75C6.55109 12.75 6.36032 12.671 6.21967 12.5303C6.07902 12.3897 6 12.1989 6 12Z" fill="#6C757D"></path>
    </g>
    <defs>
      <clipPath id="clip0_198_1961">
        <rect width="24" height="24" fill="white"></rect>
      </clipPath>
    </defs>
  </symbol>
  <symbol fill="none" xmlns="http://www.w3.org/2000/svg" viewBox="0 0 24 24" id="plus-square">
    <g clip-path="url(#clip0_198_1962)">
      <path fill-rule="evenodd" clip-rule="evenodd" d="M21 1.5H3C2.60218 1.5 2.22064 1.65804 1.93934 1.93934C1.65804 2.22064 1.5 2.60218 1.5 3V21C1.5 21.3978 1.65804 21.7794 1.93934 22.0607C2.22064 22.342 2.60218 22.5 3 22.5H21C21.3978 22.5 21.7794 22.342 22.0607 22.0607C22.342 21.7794 22.5 21.3978 22.5 21V3C22.5 2.60218 22.342 2.22064 22.0607 1.93934C21.7794 1.65804 21.3978 1.5 21 1.5ZM3 0C2.20435 0 1.44129 0.316071 0.87868 0.87868C0.316071 1.44129 0 2.20435 0 3L0 21C0 21.7956 0.316071 22.5587 0.87868 23.1213C1.44129 23.6839 2.20435 24 3 24H21C21.7956 24 22.5587 23.6839 23.1213 23.1213C23.6839 22.5587 24 21.7956 24 21V3C24 2.20435 23.6839 1.44129 23.1213 0.87868C22.5587 0.316071 21.7956 0 21 0L3 0Z" fill="#6C757D"></path>
      <path fill-rule="evenodd" clip-rule="evenodd" d="M12 6C12.1989 6 12.3897 6.07902 12.5303 6.21967C12.671 6.36032 12.75 6.55109 12.75 6.75V11.25H17.25C17.4489 11.25 17.6397 11.329 17.7803 11.4697C17.921 11.6103 18 11.8011 18 12C18 12.1989 17.921 12.3897 17.7803 12.5303C17.6397 12.671 17.4489 12.75 17.25 12.75H12.75V17.25C12.75 17.4489 12.671 17.6397 12.5303 17.7803C12.3897 17.921 12.1989 18 12 18C11.8011 18 11.6103 17.921 11.4697 17.7803C11.329 17.6397 11.25 17.4489 11.25 17.25V12.75H6.75C6.55109 12.75 6.36032 12.671 6.21967 12.5303C6.07902 12.3897 6 12.1989 6 12C6 11.8011 6.07902 11.6103 6.21967 11.4697C6.36032 11.329 6.55109 11.25 6.75 11.25H11.25V6.75C11.25 6.55109 11.329 6.36032 11.4697 6.21967C11.6103 6.07902 11.8011 6 12 6V6Z" fill="#6C757D"></path>
    </g>
    <defs>
      <clipPath id="clip0_198_1962">
        <rect width="24" height="24" fill="white"></rect>
      </clipPath>
    </defs>
  </symbol>
  <symbol fill="none" xmlns="http://www.w3.org/2000/svg" viewBox="0 0 16 16" id="uncheck-box">
    <rect x="0.5" y="0.5" width="15" height="15" rx="1.5" fill="white" stroke="#ABB5BE"></rect>
  </symbol>
  <symbol viewBox="0 0 16 16" fill="none" xmlns="http://www.w3.org/2000/svg" id="arrow-down">
    <path fill-rule="evenodd" clip-rule="evenodd" d="M1.64592 4.64592C1.69236 4.59935 1.74754 4.56241 1.80828 4.5372C1.86903 4.512 1.93415 4.49902 1.99992 4.49902C2.06568 4.49902 2.13081 4.512 2.19155 4.5372C2.2523 4.56241 2.30747 4.59935 2.35392 4.64592L7.99992 10.2929L13.6459 4.64592C13.6924 4.59943 13.7476 4.56255 13.8083 4.53739C13.8691 4.51223 13.9342 4.49929 13.9999 4.49929C14.0657 4.49929 14.1308 4.51223 14.1915 4.53739C14.2522 4.56255 14.3074 4.59943 14.3539 4.64592C14.4004 4.6924 14.4373 4.74759 14.4624 4.80833C14.4876 4.86907 14.5005 4.93417 14.5005 4.99992C14.5005 5.06566 14.4876 5.13076 14.4624 5.1915C14.4373 5.25224 14.4004 5.30743 14.3539 5.35392L8.35392 11.3539C8.30747 11.4005 8.25229 11.4374 8.19155 11.4626C8.1308 11.4878 8.06568 11.5008 7.99992 11.5008C7.93415 11.5008 7.86903 11.4878 7.80828 11.4626C7.74754 11.4374 7.69236 11.4005 7.64592 11.3539L1.64592 5.35392C1.59935 5.30747 1.56241 5.2523 1.5372 5.19155C1.512 5.13081 1.49902 5.06568 1.49902 4.99992C1.49902 4.93415 1.512 4.86903 1.5372 4.80828C1.56241 4.74754 1.59935 4.69236 1.64592 4.64592V4.64592Z" fill="black"/>
  </symbol>
  <symbol fill="none" xmlns="http://www.w3.org/2000/svg" viewBox="0 0 24 24" id="x-circle-blue">
    <g id="x-circle-fill" clip-path="url(#clip0_428_1722)">
      <rect width="24" height="24" fill="white"></rect>
      <path id="Vector" fill-rule="evenodd" clip-rule="evenodd" d="M24 12C24 15.1826 22.7357 18.2348 20.4853 20.4853C18.2348 22.7357 15.1826 24 12 24C8.8174 24 5.76516 22.7357 3.51472 20.4853C1.26428 18.2348 0 15.1826 0 12C0 8.8174 1.26428 5.76516 3.51472 3.51472C5.76516 1.26428 8.8174 0 12 0C15.1826 0 18.2348 1.26428 20.4853 3.51472C22.7357 5.76516 24 8.8174 24 12ZM8.031 6.969C7.89017 6.82817 7.69916 6.74905 7.5 6.74905C7.30084 6.74905 7.10983 6.82817 6.969 6.969C6.82817 7.10983 6.74905 7.30084 6.74905 7.5C6.74905 7.69916 6.82817 7.89017 6.969 8.031L10.9395 12L6.969 15.969C6.89927 16.0387 6.84395 16.1215 6.80621 16.2126C6.76848 16.3037 6.74905 16.4014 6.74905 16.5C6.74905 16.5986 6.76848 16.6963 6.80621 16.7874C6.84395 16.8785 6.89927 16.9613 6.969 17.031C7.10983 17.1718 7.30084 17.2509 7.5 17.2509C7.59862 17.2509 7.69627 17.2315 7.78738 17.1938C7.87848 17.156 7.96127 17.1007 8.031 17.031L12 13.0605L15.969 17.031C16.0387 17.1007 16.1215 17.156 16.2126 17.1938C16.3037 17.2315 16.4014 17.2509 16.5 17.2509C16.5986 17.2509 16.6963 17.2315 16.7874 17.1938C16.8785 17.156 16.9613 17.1007 17.031 17.031C17.1007 16.9613 17.156 16.8785 17.1938 16.7874C17.2315 16.6963 17.2509 16.5986 17.2509 16.5C17.2509 16.4014 17.2315 16.3037 17.1938 16.2126C17.156 16.1215 17.1007 16.0387 17.031 15.969L13.0605 12L17.031 8.031C17.1007 7.96127 17.156 7.87848 17.1938 7.78738C17.2315 7.69627 17.2509 7.59862 17.2509 7.5C17.2509 7.40138 17.2315 7.30373 17.1938 7.21262C17.156 7.12152 17.1007 7.03873 17.031 6.969C16.9613 6.89927 16.8785 6.84395 16.7874 6.80621C16.6963 6.76848 16.5986 6.74905 16.5 6.74905C16.4014 6.74905 16.3037 6.76848 16.2126 6.80621C16.1215 6.84395 16.0387 6.89927 15.969 6.969L12 10.9395L8.031 6.969Z" fill="#3D8BFE"></path>
    </g>
    <defs>
      <clipPath id="clip0_428_1722">
        <rect width="24" height="24" fill="white"></rect>
      </clipPath>
    </defs>
  </symbol>
  <symbol fill="none" xmlns="http://www.w3.org/2000/svg" viewBox="0 0 24 24" id="delete-person">
    <path fill-rule="evenodd" clip-rule="evenodd" d="M1.5 21C1.5 21 0 21 0 19.5C0 18 1.5 13.5 9 13.5C16.5 13.5 18 18 18 19.5C18 21 16.5 21 16.5 21H1.5ZM9 12C10.1935 12 11.3381 11.5259 12.182 10.682C13.0259 9.83807 13.5 8.69347 13.5 7.5C13.5 6.30653 13.0259 5.16193 12.182 4.31802C11.3381 3.47411 10.1935 3 9 3C7.80653 3 6.66193 3.47411 5.81802 4.31802C4.97411 5.16193 4.5 6.30653 4.5 7.5C4.5 8.69347 4.97411 9.83807 5.81802 10.682C6.66193 11.5259 7.80653 12 9 12V12ZM16.5 11.25C16.5 11.0511 16.579 10.8603 16.7197 10.7197C16.8603 10.579 17.0511 10.5 17.25 10.5H23.25C23.4489 10.5 23.6397 10.579 23.7803 10.7197C23.921 10.8603 24 11.0511 24 11.25C24 11.4489 23.921 11.6397 23.7803 11.7803C23.6397 11.921 23.4489 12 23.25 12H17.25C17.0511 12 16.8603 11.921 16.7197 11.7803C16.579 11.6397 16.5 11.4489 16.5 11.25Z" fill="#ADB5BD"></path>
  </symbol>
  <symbol fill="none" xmlns="http://www.w3.org/2000/svg" viewBox="0 0 24 24" id="x-circle-red">
    <g clip-path="url(#clip0_742_1659)">
      <path fill-rule="evenodd" clip-rule="evenodd" d="M24 12C24 15.1826 22.7357 18.2348 20.4853 20.4853C18.2348 22.7357 15.1826 24 12 24C8.8174 24 5.76516 22.7357 3.51472 20.4853C1.26428 18.2348 0 15.1826 0 12C0 8.8174 1.26428 5.76516 3.51472 3.51472C5.76516 1.26428 8.8174 0 12 0C15.1826 0 18.2348 1.26428 20.4853 3.51472C22.7357 5.76516 24 8.8174 24 12V12ZM8.031 6.969C7.89017 6.82817 7.69916 6.74905 7.5 6.74905C7.30084 6.74905 7.10983 6.82817 6.969 6.969C6.82817 7.10983 6.74905 7.30084 6.74905 7.5C6.74905 7.69916 6.82817 7.89017 6.969 8.031L10.9395 12L6.969 15.969C6.89927 16.0387 6.84395 16.1215 6.80621 16.2126C6.76848 16.3037 6.74905 16.4014 6.74905 16.5C6.74905 16.5986 6.76848 16.6963 6.80621 16.7874C6.84395 16.8785 6.89927 16.9613 6.969 17.031C7.10983 17.1718 7.30084 17.2509 7.5 17.2509C7.59862 17.2509 7.69627 17.2315 7.78738 17.1938C7.87848 17.156 7.96127 17.1007 8.031 17.031L12 13.0605L15.969 17.031C16.0387 17.1007 16.1215 17.156 16.2126 17.1938C16.3037 17.2315 16.4014 17.2509 16.5 17.2509C16.5986 17.2509 16.6963 17.2315 16.7874 17.1938C16.8785 17.156 16.9613 17.1007 17.031 17.031C17.1007 16.9613 17.156 16.8785 17.1938 16.7874C17.2315 16.6963 17.2509 16.5986 17.2509 16.5C17.2509 16.4014 17.2315 16.3037 17.1938 16.2126C17.156 16.1215 17.1007 16.0387 17.031 15.969L13.0605 12L17.031 8.031C17.1007 7.96127 17.156 7.87848 17.1938 7.78738C17.2315 7.69627 17.2509 7.59862 17.2509 7.5C17.2509 7.40138 17.2315 7.30373 17.1938 7.21262C17.156 7.12152 17.1007 7.03873 17.031 6.969C16.9613 6.89927 16.8785 6.84395 16.7874 6.80621C16.6963 6.76848 16.5986 6.74905 16.5 6.74905C16.4014 6.74905 16.3037 6.76848 16.2126 6.80621C16.1215 6.84395 16.0387 6.89927 15.969 6.969L12 10.9395L8.031 6.969Z" fill="#DC3545"></path>
    </g>
    <defs>
      <clipPath id="clip0_742_1659">
        <rect width="24" height="24" fill="white"></rect>
      </clipPath>
    </defs>
  </symbol>
</svg>